<?xml version="1.0" encoding="UTF-8"?>
<svg version="1.1" xmlns="http://www.w3.org/2000/svg" width="256" height="256">
<path d="M0 0 C0.41765625 1.21558594 0.8353125 2.43117187 1.265625 3.68359375 C4.15621016 10.95899814 4.15621016 10.95899814 9 17 C15.30991492 19.38572299 22.40053693 18.69372871 29 18 C29.26554687 16.96746094 29.53109375 15.93492188 29.8046875 14.87109375 C30.81920827 11.32027105 32.29699639 8.28137592 34.125 5.0625 C34.66382813 4.10472656 35.20265625 3.14695313 35.7578125 2.16015625 C36.16773438 1.44730469 36.57765625 0.73445313 37 0 C47.60553169 -0.9303098 57.73460574 3.04086094 67 8 C68 9 68 9 68.1328125 11.1171875 C68.11389147 17.79631038 67.71922566 24.36000595 67 31 C69.06114218 32.43947997 71.12384812 33.87662571 73.1875 35.3125 C73.76564453 35.71662109 74.34378906 36.12074219 74.93945312 36.53710938 C78.22570643 38.82077693 81.53832428 40.98557854 85 43 C86.03640625 42.33871094 87.0728125 41.67742187 88.140625 40.99609375 C89.51000847 40.14257391 90.87982284 39.28974513 92.25 38.4375 C92.93191406 37.99986328 93.61382812 37.56222656 94.31640625 37.11132812 C94.98027344 36.70205078 95.64414063 36.29277344 96.328125 35.87109375 C96.9355957 35.48880615 97.54306641 35.10651855 98.16894531 34.71264648 C100.53115593 33.79327411 101.66296846 34.09373678 104 35 C110.26717079 40.73428751 120.03532155 50.14261101 120.8125 59.0625 C120.24650719 65.0114457 115.90791186 70.00107703 111.92271423 74.17637634 C109.45623199 77.79855663 109.51270613 79.99432931 109.53344727 84.35375977 C109.53114105 85.07648575 109.52883484 85.79921173 109.52645874 86.5438385 C109.52383565 88.10815439 109.53024203 89.6725061 109.54471016 91.23675728 C109.56668905 93.72340169 109.56284844 96.20883532 109.55223083 98.69554138 C109.5306088 104.87604685 109.54777573 111.05628305 109.57373047 117.23675537 C109.59526676 122.45487881 109.59687881 127.67222146 109.57081413 132.89033318 C109.56650851 135.32117411 109.59097374 137.75060646 109.61634827 140.18128967 C109.62762056 151.8039738 107.61474334 162.39519602 99.25 171.06640625 C80.44099703 187.23039318 54.49938828 193.06444326 30.171875 193.203125 C29.34885895 193.21009399 28.5258429 193.21706299 27.67788696 193.22424316 C25.03520551 193.24155283 22.39273578 193.24796284 19.75 193.25 C18.40074432 193.25151062 18.40074432 193.25151062 17.02423096 193.25305176 C4.15298583 193.24327751 -8.42077293 193.01264527 -21 190 C-22.91425781 189.54753906 -22.91425781 189.54753906 -24.8671875 189.0859375 C-41.4123643 184.70947138 -58.79177945 177.88586338 -67.875 162.5 C-72.50922622 154.07413415 -72.22141832 145.40296573 -72.09100342 136.06277084 C-72.05191838 132.88069356 -72.05024607 129.69891727 -72.04620361 126.51663399 C-72.03851895 120.61241537 -72.01725904 114.70927476 -71.92822266 108.80566406 C-71.86743083 104.67847396 -71.85658031 100.55361413 -71.87692261 96.42605972 C-71.87566014 94.86891946 -71.85678854 93.31167432 -71.81863403 91.75500107 C-71.5842288 81.78594921 -72.82564745 75.41453538 -79.49996948 67.72431755 C-81.99865208 64.80849581 -82.97825618 63.18641245 -83.42944336 59.31832886 C-82.87667539 55.04706501 -81.01387881 52.37287407 -78.4375 49.0625 C-77.76001709 48.15443604 -77.76001709 48.15443604 -77.06884766 47.22802734 C-73.59940984 42.62957715 -69.94183543 38.20288414 -66 34 C-61.2128572 34.57665391 -57.74871176 36.64082996 -53.6875 39.0625 C-53.04232422 39.43955078 -52.39714844 39.81660156 -51.73242188 40.20507812 C-50.15121848 41.13037493 -48.5750854 42.06432681 -47 43 C-46.67771054 39.97522829 -46.67771054 39.97522829 -48.57421875 38.1328125 C-49.62029297 37.13894531 -49.62029297 37.13894531 -50.6875 36.125 C-51.37199219 35.46757813 -52.05648437 34.81015625 -52.76171875 34.1328125 C-53.86966797 33.07707031 -53.86966797 33.07707031 -55 32 C-56.66666667 30.33333333 -58.33333333 28.66666667 -60 27 C-60.95519531 26.10023437 -61.91039063 25.20046875 -62.89453125 24.2734375 C-70.61765011 16.73528029 -70.61765011 16.73528029 -71.7109375 11.7734375 C-71.69014492 9.09119488 -71.4136819 6.64201691 -71 4 C-61.64845618 2.90775783 -56.38048475 5.38620347 -48.8125 10.6875 C-47.87986328 11.31333984 -46.94722656 11.93917969 -45.98632812 12.58398438 C-44.16658567 13.80524512 -42.35267273 15.03524819 -40.54541016 16.27490234 C-37.08912124 18.61732873 -33.55689078 20.81403775 -30 23 C-30 18.05 -30 13.1 -30 8 C-27.834375 7.05125 -25.66875 6.1025 -23.4375 5.125 C-22.77032959 4.82996582 -22.10315918 4.53493164 -21.41577148 4.23095703 C-14.1934732 1.10294891 -7.87236988 -0.32132122 0 0 Z " fill="#488CBE" transform="translate(110,32)"/>
<path d="M0 0 C0.41765625 1.21558594 0.8353125 2.43117187 1.265625 3.68359375 C4.15621016 10.95899814 4.15621016 10.95899814 9 17 C15.30991492 19.38572299 22.40053693 18.69372871 29 18 C29.26554687 16.96746094 29.53109375 15.93492188 29.8046875 14.87109375 C30.81920827 11.32027105 32.29699639 8.28137592 34.125 5.0625 C34.66382813 4.10472656 35.20265625 3.14695313 35.7578125 2.16015625 C36.16773438 1.44730469 36.57765625 0.73445313 37 0 C47.60553169 -0.9303098 57.73460574 3.04086094 67 8 C68 9 68 9 68.1328125 11.1171875 C68.11389147 17.79631038 67.71922566 24.36000595 67 31 C69.06114218 32.43947997 71.12384812 33.87662571 73.1875 35.3125 C73.76564453 35.71662109 74.34378906 36.12074219 74.93945312 36.53710938 C78.22570643 38.82077693 81.53832428 40.98557854 85 43 C86.03640625 42.33871094 87.0728125 41.67742187 88.140625 40.99609375 C89.51000847 40.14257391 90.87982284 39.28974513 92.25 38.4375 C92.93191406 37.99986328 93.61382812 37.56222656 94.31640625 37.11132812 C94.98027344 36.70205078 95.64414063 36.29277344 96.328125 35.87109375 C96.9355957 35.48880615 97.54306641 35.10651855 98.16894531 34.71264648 C100.53115593 33.79327411 101.66296846 34.09373678 104 35 C110.26717079 40.73428751 120.03532155 50.14261101 120.8125 59.0625 C120.26270208 64.84122708 116.12036733 70.08586292 111.93164062 73.8671875 C108.90773197 78.77148425 109.39663692 83.64733021 109.390625 89.30078125 C109.37408875 90.49229294 109.35755249 91.68380463 109.34051514 92.91142273 C109.2919846 96.711834 109.27065182 100.51184494 109.25 104.3125 C109.22184473 106.89129624 109.19191794 109.47007379 109.16015625 112.04882812 C109.08622397 118.36581262 109.03461098 124.68268429 109 131 C103.88444017 131.75466911 99.15505593 132.09043958 94 132 C93.99742187 132.76183594 93.99484375 133.52367187 93.9921875 134.30859375 C93.69427751 142.26279059 91.98221607 146.86029939 87 153 C86.319375 153.969375 85.63875 154.93875 84.9375 155.9375 C82.7714288 158.24331772 81.00107332 159.08300537 78 160 C78.04125 158.824375 78.0825 157.64875 78.125 156.4375 C77.59191551 151.16496126 75.09489062 147.71857071 72.125 143.5 C67.06426971 136.30210084 62.46765996 129.19404027 64 120 C66.13450029 116.73623809 68.47628334 113.76185833 72 112 C73.54023996 111.93049459 75.08334988 111.91547643 76.625 111.9375 C77.44226563 111.94652344 78.25953125 111.95554687 79.1015625 111.96484375 C79.72804687 111.97644531 80.35453125 111.98804688 81 112 C81.309375 111.05125 81.61875 110.1025 81.9375 109.125 C83 106 83 106 84 104 C84.57956783 98.54378289 85.13890415 92.84096968 82.0625 88.0625 C78.06099464 83.48935102 73.20630453 80.50696077 67.18359375 79.5546875 C62.67959386 79.37085077 59.59369169 79.73960891 55.4375 81.5625 C52.46673984 84.53326016 51.78474545 86.91932365 51 91 C49.7625 91.0825 48.525 91.165 47.25 91.25 C44.48230679 91.62719005 43.00936634 91.99447626 40.5625 93.4375 C38.04554576 97.56530495 38 102.22761273 38 107 C29.48711911 106.70645238 22.59376349 103.53223423 15 100 C15 99.34 15 98.68 15 98 C14.42894531 97.73445313 13.85789062 97.46890625 13.26953125 97.1953125 C0.89471977 90.67776979 -8.60465168 78.23888889 -17.61328125 67.84375 C-20.45449055 64.5807209 -23.40458509 61.52258162 -26.5 58.5 C-30.39397947 54.64887038 -34.11291314 50.73029042 -37.66015625 46.55859375 C-39.49068967 44.42919773 -40.66817983 43.12111436 -43.34375 42.14453125 C-46.47399234 40.79576507 -48.1537351 39.14529509 -50.5 36.6875 C-51.2321875 35.92824219 -51.964375 35.16898438 -52.71875 34.38671875 C-53.4715625 33.59910156 -54.224375 32.81148437 -55 32 C-57.59473664 29.38011244 -60.21026221 26.80193924 -62.89453125 24.2734375 C-70.61765011 16.73528029 -70.61765011 16.73528029 -71.7109375 11.7734375 C-71.69014492 9.09119488 -71.4136819 6.64201691 -71 4 C-61.64845618 2.90775783 -56.38048475 5.38620347 -48.8125 10.6875 C-47.87986328 11.31333984 -46.94722656 11.93917969 -45.98632812 12.58398438 C-44.16658567 13.80524512 -42.35267273 15.03524819 -40.54541016 16.27490234 C-37.08912124 18.61732873 -33.55689078 20.81403775 -30 23 C-30 18.05 -30 13.1 -30 8 C-27.834375 7.05125 -25.66875 6.1025 -23.4375 5.125 C-22.77032959 4.82996582 -22.10315918 4.53493164 -21.41577148 4.23095703 C-14.1934732 1.10294891 -7.87236988 -0.32132122 0 0 Z " fill="#478BBE" transform="translate(110,32)"/>
<path d="M0 0 C0.61874391 14.2634751 1.12730501 26.33883355 -7.9375 38.1875 C-24.28047401 55.12924676 -51.48805844 61.58785561 -74.26269531 62.16113281 C-75.78444383 62.18069657 -77.30627546 62.19444952 -78.828125 62.203125 C-79.65114105 62.21009399 -80.4741571 62.21706299 -81.32211304 62.22424316 C-83.96479449 62.24155283 -86.60726422 62.24796284 -89.25 62.25 C-90.59925568 62.25151062 -90.59925568 62.25151062 -91.97576904 62.25305176 C-104.84701417 62.24327751 -117.42077293 62.01264527 -130 59 C-131.27617187 58.69835937 -132.55234375 58.39671875 -133.8671875 58.0859375 C-150.4123643 53.70947138 -167.79177945 46.88586338 -176.875 31.5 C-181.00021069 23.34680581 -181.27206093 16.06869767 -181 7 C-170.65136625 7.50877174 -160.31822159 8.03202312 -150 9 C-149.80083984 10.82337891 -149.80083984 10.82337891 -149.59765625 12.68359375 C-149.41949909 14.26825484 -149.24110125 15.8528889 -149.0625 17.4375 C-148.93198242 18.64116211 -148.93198242 18.64116211 -148.79882812 19.86914062 C-148.69451606 23.75576664 -148.69451606 23.75576664 -147 27 C-145.47401128 27.19131017 -143.94051441 27.32350904 -142.40625 27.4296875 C-141.4575 27.50316406 -140.50875 27.57664063 -139.53125 27.65234375 C-137.54206217 27.79845677 -135.55247574 27.93926029 -133.5625 28.07421875 C-125.20398537 28.73705795 -118.23616693 30.73276761 -110.75 34.5 C-92.58737614 42.94536572 -67.12834834 44.15852946 -48.12109375 38.140625 C-47.09113281 37.76421875 -46.06117188 37.3878125 -45 37 C-44.06285156 36.66484375 -43.12570313 36.3296875 -42.16015625 35.984375 C-37.71978756 34.3574744 -37.71978756 34.3574744 -34.76953125 30.875 C-34.51558594 30.25625 -34.26164063 29.6375 -34 29 C-33.34 29 -32.68 29 -32 29 C-32.99 23.06 -32.99 23.06 -34 17 C-31 20 -31 20 -30.70703125 22.26171875 C-30.74183594 23.06222656 -30.77664062 23.86273438 -30.8125 24.6875 C-30.85310547 25.89986328 -30.85310547 25.89986328 -30.89453125 27.13671875 C-30.92933594 27.75160156 -30.96414062 28.36648437 -31 29 C-25.16756232 25.80604603 -22.4246608 21.60117716 -19 16 C-18.34 15.01 -17.68 14.02 -17 13 C-16.55570562 10.95130926 -16.18705805 8.88545707 -15.875 6.8125 C-15.62363281 5.18248047 -15.62363281 5.18248047 -15.3671875 3.51953125 C-15.24601563 2.68808594 -15.12484375 1.85664063 -15 1 C-9.92932037 0.28832567 -5.13401853 -0.04978442 0 0 Z " fill="#478CBF" transform="translate(219,163)"/>
<path d="M0 0 C9.31730659 -1.07689732 14.57609904 1.34820144 22.125 6.625 C23.04925781 7.24246094 23.97351563 7.85992187 24.92578125 8.49609375 C26.7560794 9.72231606 28.57825307 10.96076271 30.39160156 12.21191406 C32.85712451 13.90205727 35.35632596 15.52681778 37.8671875 17.1484375 C40.39602586 18.82152409 42.29977871 20.30456751 44.4453125 22.484375 C48.14741186 26.12986734 52.4403964 28.57805517 56.875 31.25 C57.80884521 31.81992676 58.74269043 32.38985352 59.70483398 32.97705078 C62.4653959 34.65891668 65.23178379 36.33077024 68 38 C69.43102963 38.86712141 70.86202334 39.73430211 72.29296875 40.6015625 C73.54909644 41.36000922 74.80558868 42.11785262 76.0625 42.875 C76.66352539 43.23706543 77.26455078 43.59913086 77.88378906 43.97216797 C80.60782951 45.60343349 83.34584131 47.18997525 86.12890625 48.71875 C99.37495637 56.04120796 114.90494632 67.77173774 121 82 C121 82.99 121 83.98 121 85 C120.113125 85.226875 119.22625 85.45375 118.3125 85.6875 C114.31636692 87.27087348 112.5414427 88.51459287 110 92 C109.22896073 95.65109773 109 99.27292025 109 103 C100.48711911 102.70645238 93.59376349 99.53223423 86 96 C86 95.34 86 94.68 86 94 C85.42894531 93.73445313 84.85789062 93.46890625 84.26953125 93.1953125 C71.89471977 86.67776979 62.39534832 74.23888889 53.38671875 63.84375 C50.54550945 60.5807209 47.59541491 57.52258162 44.5 54.5 C40.60602053 50.64887038 36.88708686 46.73029042 33.33984375 42.55859375 C31.50931033 40.42919773 30.33182017 39.12111436 27.65625 38.14453125 C24.52600766 36.79576507 22.8462649 35.14529509 20.5 32.6875 C19.7678125 31.92824219 19.035625 31.16898438 18.28125 30.38671875 C17.5284375 29.59910156 16.775625 28.81148437 16 28 C13.40526336 25.38011244 10.78973779 22.80193924 8.10546875 20.2734375 C0.38234989 12.73528029 0.38234989 12.73528029 -0.7109375 7.7734375 C-0.69014492 5.09119488 -0.4136819 2.64201691 0 0 Z " fill="#3A3A3A" transform="translate(39,36)"/>
<path d="M0 0 C0.33 2.64 0.66 5.28 1 8 C1.66 8 2.32 8 3 8 C4.40234375 10.046875 4.40234375 10.046875 5.9375 12.75 C7.40509752 15.3173573 8.82343276 17.76841543 10.6171875 20.12109375 C14.08994709 24.83973037 14.23083231 30.34460835 14 36 C13.34 36 12.68 36 12 36 C11.76925781 36.77085937 11.53851563 37.54171875 11.30078125 38.3359375 C8.6017271 43.86373008 1.67980653 45.06449035 -3.80859375 46.98046875 C-23.69343353 52.60526407 -49.55639977 50.29262807 -68 41 C-68.92683594 40.47664063 -69.85367188 39.95328125 -70.80859375 39.4140625 C-74.66635849 37.70474691 -78.08335206 37.25882537 -82.25 36.875 C-82.99709229 36.79572266 -83.74418457 36.71644531 -84.51391602 36.63476562 C-87.76061733 36.2945982 -91.00863685 35.99927595 -94.26171875 35.7265625 C-95.14472656 35.65179688 -96.02773437 35.57703125 -96.9375 35.5 C-97.68902344 35.4484375 -98.44054687 35.396875 -99.21484375 35.34375 C-101 35 -101 35 -103 33 C-103.99809046 27.31088437 -104.12009261 21.76444536 -104 16 C-104.96873047 16.03480469 -104.96873047 16.03480469 -105.95703125 16.0703125 C-115.73537571 16.25758585 -125.30578921 15.13572344 -135 14 C-135 11.69 -135 9.38 -135 7 C-129.62034702 7.22928218 -124.24151214 7.4698002 -118.86328125 7.73046875 C-115.40200882 7.89731067 -111.94480419 8.03481655 -108.48046875 8.11328125 C-102.01120906 8.34268762 -97.55179307 8.59282004 -92.35546875 12.52734375 C-88.92050883 14.67490576 -85.2493927 15.91514802 -81.4375 17.25 C-80.71643066 17.5080542 -79.99536133 17.7661084 -79.25244141 18.03198242 C-74.82961453 19.55438732 -70.64984279 20.48674534 -66 21 C-66 19.02 -66 17.04 -66 15 C-65.34 15 -64.68 15 -64 15 C-64 14.34 -64 13.68 -64 13 C-58.50078594 12.90118214 -53.00208765 12.82855621 -47.50219727 12.78027344 C-45.63101196 12.76014793 -43.75988961 12.73284451 -41.88891602 12.69824219 C-39.20052568 12.64976419 -36.51296612 12.62704128 -33.82421875 12.609375 C-32.56782845 12.57840729 -32.56782845 12.57840729 -31.28605652 12.54681396 C-25.46153712 12.54455959 -25.46153712 12.54455959 -22.94848633 15.02441406 C-22.4789856 16.0023291 -22.4789856 16.0023291 -22 17 C-16.17146705 12.35192942 -10.47147203 7.73270395 -5.33984375 2.3125 C-3.56574919 0.57461145 -2.49963074 0 0 0 Z " fill="#75C6EB" transform="translate(173,156)"/>
<path d="M0 0 C5.5925014 2.03594084 9.70423707 4.99044034 13 10 C13.66 10.99 14.32 11.98 15 13 C15.81299625 19.38107519 15.7353793 25.91395873 12.46484375 31.59375 C10.04382843 33.91792471 7.48295474 33.66629848 4.25390625 33.74609375 C0.3031378 34.19115432 -1.32999624 36.13463011 -4 39 C-5.39819512 41.6514482 -5.39819512 41.6514482 -6 44 C-9.819353 43.44775406 -12.19272 42.45457211 -15.28515625 40.1640625 C-16.06310547 39.59429687 -16.84105469 39.02453125 -17.64257812 38.4375 C-18.44115234 37.839375 -19.23972656 37.24125 -20.0625 36.625 C-20.86494141 36.03460938 -21.66738281 35.44421875 -22.49414062 34.8359375 C-24.66955665 33.23280934 -26.83700707 31.619835 -29 30 C-29.73847168 29.48856445 -30.47694336 28.97712891 -31.23779297 28.45019531 C-33 27 -33 27 -33.34765625 24.6953125 C-32.86344061 20.33073861 -32.42081336 17.60646631 -29.875 13.9375 C-26.50939708 11.66937629 -24.01732929 11.23631349 -20 11 C-19.773125 10.0925 -19.54625 9.185 -19.3125 8.25 C-15.84087445 -0.34640613 -8.20534147 -0.963424 0 0 Z " fill="#BBBCBC" transform="translate(180,111)"/>
<path d="M0 0 C5.89114948 3.05215803 9.80922053 6.89191134 12.4375 13.04296875 C13.43036551 19.77355177 12.75751815 24.81159167 8.82421875 30.38671875 C7.42992506 32.052016 6.06967574 33.60770429 4.4375 35.04296875 C3.7775 35.04296875 3.1175 35.04296875 2.4375 35.04296875 C2.1075 36.03296875 1.7775 37.02296875 1.4375 38.04296875 C-3.20368711 39.83854114 -8.69050174 39.55916015 -13.5625 39.04296875 C-17.55130216 37.01230583 -20.63043488 34.42612082 -23.5625 31.04296875 C-23.5625 30.38296875 -23.5625 29.72296875 -23.5625 29.04296875 C-24.2225 29.04296875 -24.8825 29.04296875 -25.5625 29.04296875 C-27.97390739 23.63674896 -28.46023672 18.89428847 -27.5625 13.04296875 C-25.17548991 7.3387167 -21.26225356 2.83570114 -15.828125 -0.140625 C-10.51281216 -2.05597049 -5.28116227 -1.9723853 0 0 Z " fill="#EEF2F6" transform="translate(89.5625,111.95703125)"/>
<path d="M0 0 C5.2638749 2.42603758 9.07997996 6.35141398 11.3828125 11.66015625 C13.40479704 19.32578117 12.70008176 28.05780087 8.89453125 35.0234375 C2.19993035 46.10557684 2.19993035 46.10557684 -4 48 C-3.938125 46.2365625 -3.938125 46.2365625 -3.875 44.4375 C-4.40808449 39.16496126 -6.90510938 35.71857071 -9.875 31.5 C-14.93573029 24.30210084 -19.53234004 17.19404027 -18 8 C-13.24534341 0.72988289 -8.62546271 -1.29886354 0 0 Z " fill="#292B2C" transform="translate(192,144)"/>
<path d="M0 0 C3.43403788 2.00011167 6.21175747 4.42351494 8 8 C8.51158525 12.06344859 8.94019368 16.21399502 6.98828125 19.921875 C4.52837388 22.90626712 1.85755143 25.73215082 -2.0859375 26.30078125 C-8.42779276 26.33324809 -11.52552708 25.20696233 -16.3125 20.9375 C-18.78404606 16.63517908 -19.02374112 12.84018777 -18 8 C-13.64481256 0.63070418 -8.36507947 -1.36088606 0 0 Z " fill="#484749" transform="translate(89,119)"/>
<path d="M0 0 C32.89148342 1.08944458 32.89148342 1.08944458 36.7890625 4.62109375 C38.43740016 7.85927967 38.5200957 10.63406714 38.6875 14.25 C38.78611328 16.14492187 38.78611328 16.14492187 38.88671875 18.078125 C38.94279297 19.52445313 38.94279297 19.52445313 39 21 C40.093125 20.855625 41.18625 20.71125 42.3125 20.5625 C48.48663358 20.49599228 53.27111114 24.37509806 58 28 C58 28.33 58 28.66 58 29 C39.65246407 29.23793634 39.65246407 29.23793634 34 28 C30.27471264 24.27471264 30.94547468 18.04797196 30.9375 13 C30.95326659 11.66659713 30.97222486 10.33320679 31 9 C30.35417969 9.02320313 29.70835938 9.04640625 29.04296875 9.0703125 C19.26462429 9.25758585 9.69421079 8.13572344 0 7 C0 4.69 0 2.38 0 0 Z " fill="#F0F6FA" transform="translate(38,163)"/>
<path d="M0 0 C5.5925014 2.03594084 9.70423707 4.99044034 13 10 C13.66 10.99 14.32 11.98 15 13 C15.93207351 20.41323579 15.41085441 25.93507518 11 32 C8.36 32 5.72 32 3 32 C3.4640625 30.8553125 3.4640625 30.8553125 3.9375 29.6875 C5.94788263 24.60241453 6.83208407 20.23588248 5.4375 14.8125 C2.60613853 11.24252249 -0.88312943 9.32430172 -5.3203125 8.64453125 C-8.97954029 8.51772633 -11.27695137 8.55504699 -14.4375 10.5 C-14.953125 10.995 -15.46875 11.49 -16 12 C-16.66 12 -17.32 12 -18 12 C-18.875 9.3125 -18.875 9.3125 -19 6 C-12.96775989 -0.03224011 -8.29646041 -0.97412266 0 0 Z " fill="#F3F6F8" transform="translate(180,111)"/>
<path d="M0 0 C3.77286811 1.61052703 7.02483556 3.41060861 9.203125 6.9609375 C10.94703411 11.42329317 10.37579387 15.13880572 8.5 19.4375 C8.005 20.283125 7.51 21.12875 7 22 C2.93991622 21.47900216 0.94077219 20.45489342 -1.98828125 17.62109375 C-2.69404297 16.94755859 -3.39980469 16.27402344 -4.12695312 15.58007812 C-4.84818359 14.87302734 -5.56941406 14.16597656 -6.3125 13.4375 C-7.05306641 12.72658203 -7.79363281 12.01566406 -8.55664062 11.28320312 C-10.37971414 9.5307002 -12.19356106 7.76961818 -14 6 C-11.17442128 -0.52056628 -6.48591527 -1.03565421 0 0 Z " fill="#4E4D4F" transform="translate(177,119)"/>
<path d="M0 0 C5.53588533 -0.02464775 11.071739 -0.04283496 16.60766602 -0.05493164 C18.4924373 -0.05997244 20.37720465 -0.06680498 22.26196289 -0.07543945 C24.96501636 -0.08751617 27.66801831 -0.09323068 30.37109375 -0.09765625 C31.21900986 -0.10281754 32.06692596 -0.10797882 32.9405365 -0.11329651 C34.96071068 -0.11349195 36.98077934 -0.06206211 39 0 C40 1 40 1 40.0625 3.5625 C40.041875 4.366875 40.02125 5.17125 40 6 C36.4937557 7.1687481 33.3522134 7.12514267 29.70703125 7.09765625 C28.64798836 7.09553383 28.64798836 7.09553383 27.56755066 7.09336853 C25.31582374 7.08777764 23.06419679 7.07522688 20.8125 7.0625 C19.28450665 7.05748382 17.75651173 7.05292112 16.22851562 7.04882812 C12.48563865 7.0378112 8.74283627 7.02055287 5 7 C5 7.99 5 8.98 5 10 C2.03 9.505 2.03 9.505 -1 9 C-1.125 2.25 -1.125 2.25 0 0 Z " fill="#EFF5F9" transform="translate(109,169)"/>
<path d="M0 0 C0.99 0 1.98 0 3 0 C3 0.66 3 1.32 3 2 C3.63808594 2.20496094 4.27617188 2.40992188 4.93359375 2.62109375 C5.75988281 2.89050781 6.58617187 3.15992188 7.4375 3.4375 C8.26121094 3.70433594 9.08492187 3.97117188 9.93359375 4.24609375 C12 5 12 5 13 6 C13.17858965 8.09916026 13.26798477 10.20622688 13.3125 12.3125 C13.34988281 13.46363281 13.38726562 14.61476562 13.42578125 15.80078125 C13 19 13 19 11.13671875 21.38671875 C9 23 9 23 6.5 23.5 C3.02481346 22.80496269 2.08330213 21.88861219 0 19 C-0.49543508 15.73737872 -0.37636333 12.54030674 -0.25 9.25 C-0.23195313 8.36183594 -0.21390625 7.47367188 -0.1953125 6.55859375 C-0.14827374 4.37129152 -0.08257009 2.18620184 0 0 Z " fill="#EFF3F7" transform="translate(122,130)"/>
<path d="M0 0 C0 2.31 0 4.62 0 7 C-4.95 7.33 -9.9 7.66 -15 8 C-15 5.69 -15 3.38 -15 1 C-9.92928099 0.28832014 -5.11791642 -0.10662326 0 0 Z " fill="#F6F9FB" transform="translate(219,163)"/>
<path d="M0 0 C8.58 0 17.16 0 26 0 C26 0.33 26 0.66 26 1 C17.28849992 3.28498363 8.87806461 3.91958154 0 2 C0 1.34 0 0.68 0 0 Z " fill="#4E92C2" transform="translate(115,177)"/>
<path d="M0 0 C2.96404505 2.80804268 5.44499019 5.18315774 7 9 C4.69 9 2.38 9 0 9 C0 6.03 0 3.06 0 0 Z " fill="#5595C4" transform="translate(77,175)"/>
<path d="M0 0 C2.10633718 1.70828921 2.93801608 2.52148416 3.29296875 5.26171875 C3.25816406 6.06222656 3.22335938 6.86273438 3.1875 7.6875 C3.16042969 8.49574219 3.13335937 9.30398437 3.10546875 10.13671875 C3.07066406 10.75160156 3.03585938 11.36648437 3 12 C4.65 11.34 6.3 10.68 8 10 C5.78065836 13.32901247 4.65316671 13.75023244 1 15 C1.01740234 14.00419922 1.01740234 14.00419922 1.03515625 12.98828125 C1.11893409 6.43693213 1.11893409 6.43693213 0 0 Z " fill="#436A8E" transform="translate(185,180)"/>
<path d="M0 0 C0.66 0.33 1.32 0.66 2 1 C-0.97 3.97 -3.94 6.94 -7 10 C-7 6.04435836 -5.59478606 4.89133304 -3 2 C-2.01 1.34 -1.02 0.68 0 0 Z " fill="#D3E3EF" transform="translate(72,113)"/>
<path d="M0 0 C0.99 0.33 1.98 0.66 3 1 C2.0479279 2.00596297 1.08812654 3.00461563 0.125 4 C-0.40867188 4.556875 -0.94234375 5.11375 -1.4921875 5.6875 C-3 7 -3 7 -5 7 C-3.70700306 4.11562221 -2.34058637 2.12780579 0 0 Z " fill="#A4A4A4" transform="translate(153,123)"/>
<path d="M0 0 C-1.28519565 2.86697492 -2.57129254 4.97607712 -5 7 C-5.66 7 -6.32 7 -7 7 C-3.86206897 0 -3.86206897 0 0 0 Z " fill="#616062" transform="translate(79,120)"/>
</svg>
